<mxfile host="app.diagrams.net" agent="Mozilla/5.0 (X11; Linux x86_64) AppleWebKit/537.36 (KHTML, like Gecko) Chrome/130.0.0.0 Safari/537.36" version="24.7.6">
  <diagram id="C5RBs43oDa-KdzZeNtuy" name="Page-1">
    <mxGraphModel dx="723" dy="799" grid="1" gridSize="10" guides="1" tooltips="1" connect="1" arrows="1" fold="1" page="1" pageScale="1" pageWidth="827" pageHeight="1169" math="0" shadow="0">
      <root>
        <mxCell id="WIyWlLk6GJQsqaUBKTNV-0" />
        <mxCell id="WIyWlLk6GJQsqaUBKTNV-1" parent="WIyWlLk6GJQsqaUBKTNV-0" />
        <mxCell id="IhmCZeDQ-HOPJmqMbbNZ-0" value="DATA" style="swimlane;whiteSpace=wrap;html=1;" vertex="1" parent="WIyWlLk6GJQsqaUBKTNV-1">
          <mxGeometry x="60" y="120" width="320" height="400" as="geometry" />
        </mxCell>
        <mxCell id="IhmCZeDQ-HOPJmqMbbNZ-1" value="«interface»&lt;br&gt;&lt;b&gt;CruiseDataSource&lt;/b&gt;" style="html=1;whiteSpace=wrap;" vertex="1" parent="IhmCZeDQ-HOPJmqMbbNZ-0">
          <mxGeometry y="30" width="110" height="50" as="geometry" />
        </mxCell>
        <mxCell id="IhmCZeDQ-HOPJmqMbbNZ-3" value="&lt;b&gt;CruiseDataSourceImpl&lt;/b&gt;" style="swimlane;fontStyle=1;align=center;verticalAlign=top;childLayout=stackLayout;horizontal=1;startSize=26;horizontalStack=0;resizeParent=1;resizeParentMax=0;resizeLast=0;collapsible=1;marginBottom=0;whiteSpace=wrap;html=1;" vertex="1" parent="IhmCZeDQ-HOPJmqMbbNZ-0">
          <mxGeometry y="110" width="290" height="92" as="geometry" />
        </mxCell>
        <mxCell id="IhmCZeDQ-HOPJmqMbbNZ-6" value="+ getCruises():&amp;nbsp;Promise&amp;lt;CruiseEntity[]&amp;gt;&lt;div&gt;+ sortCruises(): Promise&amp;lt;void&amp;gt;&lt;/div&gt;&lt;div&gt;+ setCruises(): Promise&amp;lt;CruiseEntity[]&amp;gt;&lt;/div&gt;&lt;div&gt;+ getAggregateTotalArea(): Promise&amp;lt;number&amp;gt;&lt;/div&gt;" style="text;strokeColor=none;fillColor=none;align=left;verticalAlign=top;spacingLeft=4;spacingRight=4;overflow=hidden;rotatable=0;points=[[0,0.5],[1,0.5]];portConstraint=eastwest;whiteSpace=wrap;html=1;" vertex="1" parent="IhmCZeDQ-HOPJmqMbbNZ-3">
          <mxGeometry y="26" width="290" height="66" as="geometry" />
        </mxCell>
        <mxCell id="IhmCZeDQ-HOPJmqMbbNZ-7" value="CruiseRepositoryImpl" style="swimlane;fontStyle=1;align=center;verticalAlign=top;childLayout=stackLayout;horizontal=1;startSize=26;horizontalStack=0;resizeParent=1;resizeParentMax=0;resizeLast=0;collapsible=1;marginBottom=0;whiteSpace=wrap;html=1;" vertex="1" parent="IhmCZeDQ-HOPJmqMbbNZ-0">
          <mxGeometry x="60" y="250" width="260" height="50" as="geometry" />
        </mxCell>
        <mxCell id="IhmCZeDQ-HOPJmqMbbNZ-10" value="+ datasource: CruiseDataSource" style="text;strokeColor=none;fillColor=none;align=left;verticalAlign=top;spacingLeft=4;spacingRight=4;overflow=hidden;rotatable=0;points=[[0,0.5],[1,0.5]];portConstraint=eastwest;whiteSpace=wrap;html=1;" vertex="1" parent="IhmCZeDQ-HOPJmqMbbNZ-7">
          <mxGeometry y="26" width="260" height="24" as="geometry" />
        </mxCell>
        <mxCell id="IhmCZeDQ-HOPJmqMbbNZ-17" value="" style="endArrow=block;dashed=1;endFill=0;endSize=12;html=1;rounded=0;entryX=1;entryY=0.75;entryDx=0;entryDy=0;" edge="1" parent="IhmCZeDQ-HOPJmqMbbNZ-0" source="IhmCZeDQ-HOPJmqMbbNZ-3" target="IhmCZeDQ-HOPJmqMbbNZ-1">
          <mxGeometry width="160" relative="1" as="geometry">
            <mxPoint x="300" y="260" as="sourcePoint" />
            <mxPoint x="460" y="260" as="targetPoint" />
          </mxGeometry>
        </mxCell>
        <mxCell id="IhmCZeDQ-HOPJmqMbbNZ-23" value="«interface»&lt;br&gt;&lt;b&gt;CruiseEntity&lt;/b&gt;" style="html=1;whiteSpace=wrap;" vertex="1" parent="IhmCZeDQ-HOPJmqMbbNZ-0">
          <mxGeometry x="140" y="30" width="110" height="50" as="geometry" />
        </mxCell>
        <mxCell id="IhmCZeDQ-HOPJmqMbbNZ-16" value="DOMAIN" style="swimlane;whiteSpace=wrap;html=1;" vertex="1" parent="WIyWlLk6GJQsqaUBKTNV-1">
          <mxGeometry x="450" y="120" width="310" height="400" as="geometry" />
        </mxCell>
        <mxCell id="IhmCZeDQ-HOPJmqMbbNZ-18" value="CruiseRepository" style="swimlane;fontStyle=1;align=center;verticalAlign=top;childLayout=stackLayout;horizontal=1;startSize=26;horizontalStack=0;resizeParent=1;resizeParentMax=0;resizeLast=0;collapsible=1;marginBottom=0;whiteSpace=wrap;html=1;" vertex="1" parent="IhmCZeDQ-HOPJmqMbbNZ-16">
          <mxGeometry y="250" width="260" height="50" as="geometry" />
        </mxCell>
        <mxCell id="IhmCZeDQ-HOPJmqMbbNZ-19" value="+ datasource: CruiseDataSource" style="text;strokeColor=none;fillColor=none;align=left;verticalAlign=top;spacingLeft=4;spacingRight=4;overflow=hidden;rotatable=0;points=[[0,0.5],[1,0.5]];portConstraint=eastwest;whiteSpace=wrap;html=1;" vertex="1" parent="IhmCZeDQ-HOPJmqMbbNZ-18">
          <mxGeometry y="26" width="260" height="24" as="geometry" />
        </mxCell>
        <mxCell id="IhmCZeDQ-HOPJmqMbbNZ-21" value="«interface»&lt;br&gt;&lt;b&gt;Cruise&lt;/b&gt;" style="html=1;whiteSpace=wrap;" vertex="1" parent="IhmCZeDQ-HOPJmqMbbNZ-16">
          <mxGeometry x="10" y="40" width="110" height="50" as="geometry" />
        </mxCell>
        <mxCell id="IhmCZeDQ-HOPJmqMbbNZ-22" value="«interface»&lt;br&gt;&lt;b&gt;GetCruisesUseCase&lt;/b&gt;" style="html=1;whiteSpace=wrap;" vertex="1" parent="IhmCZeDQ-HOPJmqMbbNZ-16">
          <mxGeometry x="160" y="40" width="120" height="30" as="geometry" />
        </mxCell>
        <mxCell id="IhmCZeDQ-HOPJmqMbbNZ-24" value="GetCruises" style="swimlane;fontStyle=1;align=center;verticalAlign=top;childLayout=stackLayout;horizontal=1;startSize=26;horizontalStack=0;resizeParent=1;resizeParentMax=0;resizeLast=0;collapsible=1;marginBottom=0;whiteSpace=wrap;html=1;" vertex="1" parent="IhmCZeDQ-HOPJmqMbbNZ-16">
          <mxGeometry x="70" y="110" width="220" height="86" as="geometry" />
        </mxCell>
        <mxCell id="IhmCZeDQ-HOPJmqMbbNZ-25" value="+ cruiseRepo: CruiseRepository" style="text;strokeColor=none;fillColor=none;align=left;verticalAlign=top;spacingLeft=4;spacingRight=4;overflow=hidden;rotatable=0;points=[[0,0.5],[1,0.5]];portConstraint=eastwest;whiteSpace=wrap;html=1;" vertex="1" parent="IhmCZeDQ-HOPJmqMbbNZ-24">
          <mxGeometry y="26" width="220" height="26" as="geometry" />
        </mxCell>
        <mxCell id="IhmCZeDQ-HOPJmqMbbNZ-26" value="" style="line;strokeWidth=1;fillColor=none;align=left;verticalAlign=middle;spacingTop=-1;spacingLeft=3;spacingRight=3;rotatable=0;labelPosition=right;points=[];portConstraint=eastwest;strokeColor=inherit;" vertex="1" parent="IhmCZeDQ-HOPJmqMbbNZ-24">
          <mxGeometry y="52" width="220" height="8" as="geometry" />
        </mxCell>
        <mxCell id="IhmCZeDQ-HOPJmqMbbNZ-27" value="+ async invoke(): Promise&amp;lt;Cruise[]&amp;gt;" style="text;strokeColor=none;fillColor=none;align=left;verticalAlign=top;spacingLeft=4;spacingRight=4;overflow=hidden;rotatable=0;points=[[0,0.5],[1,0.5]];portConstraint=eastwest;whiteSpace=wrap;html=1;" vertex="1" parent="IhmCZeDQ-HOPJmqMbbNZ-24">
          <mxGeometry y="60" width="220" height="26" as="geometry" />
        </mxCell>
        <mxCell id="IhmCZeDQ-HOPJmqMbbNZ-28" value="" style="endArrow=block;dashed=1;endFill=0;endSize=12;html=1;rounded=0;" edge="1" parent="IhmCZeDQ-HOPJmqMbbNZ-16" source="IhmCZeDQ-HOPJmqMbbNZ-24" target="IhmCZeDQ-HOPJmqMbbNZ-22">
          <mxGeometry width="160" relative="1" as="geometry">
            <mxPoint x="-60" y="285" as="sourcePoint" />
            <mxPoint x="10" y="285" as="targetPoint" />
          </mxGeometry>
        </mxCell>
        <mxCell id="IhmCZeDQ-HOPJmqMbbNZ-29" value="" style="shape=waypoint;sketch=0;fillStyle=solid;size=6;pointerEvents=1;points=[];fillColor=none;resizable=0;rotatable=0;perimeter=centerPerimeter;snapToPoint=1;" vertex="1" parent="IhmCZeDQ-HOPJmqMbbNZ-16">
          <mxGeometry x="180" y="200" width="20" height="20" as="geometry" />
        </mxCell>
        <mxCell id="IhmCZeDQ-HOPJmqMbbNZ-30" value="" style="shape=waypoint;sketch=0;fillStyle=solid;size=6;pointerEvents=1;points=[];fillColor=none;resizable=0;rotatable=0;perimeter=centerPerimeter;snapToPoint=1;" vertex="1" parent="IhmCZeDQ-HOPJmqMbbNZ-16">
          <mxGeometry x="200" y="200" width="20" height="20" as="geometry" />
        </mxCell>
        <mxCell id="IhmCZeDQ-HOPJmqMbbNZ-31" value="" style="shape=waypoint;sketch=0;fillStyle=solid;size=6;pointerEvents=1;points=[];fillColor=none;resizable=0;rotatable=0;perimeter=centerPerimeter;snapToPoint=1;" vertex="1" parent="IhmCZeDQ-HOPJmqMbbNZ-16">
          <mxGeometry x="220" y="200" width="20" height="20" as="geometry" />
        </mxCell>
        <mxCell id="IhmCZeDQ-HOPJmqMbbNZ-34" value="&lt;ul&gt;&lt;li&gt;&lt;span style=&quot;background-color: initial;&quot;&gt;SortCruises&lt;/span&gt;&lt;/li&gt;&lt;li&gt;&lt;span style=&quot;background-color: initial;&quot;&gt;SetCruises&lt;/span&gt;&lt;/li&gt;&lt;li&gt;GetAggregateTotalArea&amp;nbsp;&lt;/li&gt;&lt;/ul&gt;" style="text;strokeColor=none;fillColor=none;html=1;whiteSpace=wrap;verticalAlign=middle;overflow=hidden;" vertex="1" parent="IhmCZeDQ-HOPJmqMbbNZ-16">
          <mxGeometry x="60" y="180" width="170" height="80" as="geometry" />
        </mxCell>
        <mxCell id="IhmCZeDQ-HOPJmqMbbNZ-20" value="" style="endArrow=block;dashed=1;endFill=0;endSize=12;html=1;rounded=0;" edge="1" parent="WIyWlLk6GJQsqaUBKTNV-1" source="IhmCZeDQ-HOPJmqMbbNZ-7" target="IhmCZeDQ-HOPJmqMbbNZ-18">
          <mxGeometry width="160" relative="1" as="geometry">
            <mxPoint x="197" y="240" as="sourcePoint" />
            <mxPoint x="180" y="198" as="targetPoint" />
          </mxGeometry>
        </mxCell>
      </root>
    </mxGraphModel>
  </diagram>
</mxfile>
